<svg version="1.2" xmlns="http://www.w3.org/2000/svg" viewBox="0 0 1024 1024" width="1024" height="1024">
	<style>
		.s0 { fill: #ffffff } 
		.s1 { fill: #010101 } 
	</style>
	<g id="Layer 1">
		<g id="Background">
			<path id="Path 0" fill-rule="evenodd" class="s0" d="m0 512v512h1024v-1024h-1024z"/>
			<path id="Path 1" fill-rule="evenodd" class="s1" d="m503.5 64.89c-4.4 2.66-46.7 28-94 56.32-47.3 28.31-112.55 67.59-145 87.27-32.45 19.69-67.45 41.02-77.79 47.41l-18.78 11.61c0.07 149.35 0.16 153.47 1.82 153.01 0.96-0.26 7.82-3.11 15.25-6.33l13.5-5.85c0.41-94.44 0.85-114.33 1.5-114.33 0.55 0 19.29 6.86 41.65 15.25 22.36 8.39 40.76 15.7 40.89 16.25 0.14 0.55 1.08 3.81 2.1 7.24l1.86 6.25c-21.91 32.94-27.87 42.62-27.38 42.76 0.48 0.14 9.01-3.24 18.94-7.5l18.07-7.75 8.87-13.5c8.91-0.07 13.09-0.63 15.03-1.29 1.94-0.67 5.32-2.53 7.5-4.15 3.91-2.89 4.03-2.92 7.97-1.39l4 1.54c22.14-9.46 28.57-12.44 28.57-12.71 0-0.27-6.33-3.2-14.07-6.5-11.39-4.86-14.07-6.38-14.08-8 0-1.1-0.66-3.69-1.46-5.75l-1.46-3.75c12.79-14.46 26.63-30.41 39-44.79l22.5-26.13c13.76 1.08 15.83 0.83 20-0.92 2.75-1.16 5.9-3.03 7-4.17 1.1-1.13 2.79-2.04 3.75-2.02 0.96 0.02 13.34 4.35 27.5 9.64 14.16 5.28 26.2 9.96 26.75 10.39 0.55 0.43 1.31 2.97 1.69 5.64 0.46 3.27 1.93 6.6 4.5 10.19 2.09 2.94 5.61 6.39 7.81 7.68l4 2.33c26.35-11.4 34.79-15.19 35.75-15.77 1.04-0.64 2.15-3.21 2.73-6.32l0.98-5.25c19.02-8.82 31.4-14.55 39.79-18.44 8.39-3.88 15.59-7.06 16-7.07 0.41 0 2.65 2.58 4.97 5.75l4.22 5.76c8.96-0.53 14.94-0.22 19.06 0.35 4.13 0.57 7.73 0.85 8 0.63 0.27-0.23-2.69-5.04-6.58-10.69-3.9-5.66-7.38-10.85-7.75-11.54-0.46-0.85 2.44-2.72 9.08-5.86 5.36-2.53 16.95-7.94 25.75-12.02 8.8-4.08 16.34-7.4 16.75-7.39 0.41 0.01 14.14 8.1 30.5 17.99 16.36 9.88 30.2 17.97 30.75 17.99 0.55 0.02 3.7-5.88 7-13.1 3.3-7.23 6.11-13.41 6.24-13.75 0.14-0.33-3.01-2.66-7-5.18-3.98-2.51-42.11-25.51-84.74-51.12-42.62-25.6-91.56-54.93-108.75-65.18-17.19-10.25-31.59-18.62-32-18.6-0.41 0.02-4.35 2.21-8.75 4.86zm288 59.47c-2.2 0.67-6.02 2.39-8.5 3.82-2.48 1.42-6.41 4.67-8.75 7.2-2.34 2.54-5.59 7.43-7.22 10.87-1.69 3.56-3.24 8.83-3.61 12.25-0.37 3.48-0.12 8.52 0.59 12 0.67 3.3 2.12 7.8 3.22 10 1.1 2.2 3.07 5.46 4.38 7.25l2.39 3.25c-21.92 47.66-30.25 65.78-32.64 71l-4.35 9.5c-84.87 43.06-109.85 55.55-110.26 55.53-0.41-0.02-2.44-1.12-4.5-2.46-2.06-1.33-6.23-3.2-9.25-4.15-3.84-1.21-7.46-1.58-12-1.24-3.82 0.28-8.77 1.5-12 2.95-3.02 1.36-7.32 4.25-9.53 6.42-2.22 2.17-5.37 6.65-7 9.95-2.67 5.39-2.97 6.96-2.95 15.5 0.01 8.08 0.4 10.32 2.58 15 1.42 3.03 4.56 7.54 6.99 10.04 2.42 2.49 6.43 5.52 8.91 6.73 2.48 1.2 7.2 2.67 10.5 3.27 4.41 0.79 7.46 0.77 11.5-0.08 3.02-0.64 7.7-2.35 10.39-3.81 2.69-1.46 6.88-4.9 9.32-7.65 2.43-2.75 5.29-7.36 6.35-10.25 1.07-2.89 1.94-7.05 1.94-9.25v-4c93.18-46.89 120.59-60.95 121.03-61.5 0.44-0.55 6.31-13.15 13.05-28 6.74-14.85 15.73-34.65 19.98-44l7.73-17c11.11-0.9 15.79-2.08 19.21-3.66 3.02-1.41 7.69-4.54 10.36-6.95 3.22-2.91 6.09-6.9 8.5-11.84 3.49-7.13 3.64-7.89 3.64-18 0-9.72-0.24-11.06-3.09-17.05-1.7-3.57-4.4-8.03-6-9.9-1.6-1.87-4.93-4.76-7.41-6.42-2.48-1.67-6.98-3.86-10-4.87-3.41-1.14-8.16-1.81-12.5-1.76-3.85 0.05-8.8 0.64-11 1.31zm113.5 107c-3.02 0.7-7.3 2.08-9.5 3.06-2.2 0.98-6.48 4.15-9.5 7.05-3.59 3.44-6.52 7.49-8.42 11.65-1.7 3.7-3.38 9.69-4 14.25l-1.08 7.88c-31 15.47-93.55 47.13-159 80.34-65.45 33.21-119.56 60.39-120.25 60.4-0.69 0-2.94-1.08-5-2.42-2.06-1.33-6.45-3.19-9.75-4.13-4.26-1.21-7.74-1.52-12-1.07-3.43 0.36-8.57 1.87-12 3.52-3.53 1.7-7.56 4.69-9.78 7.25-2.08 2.4-4.71 6.39-5.86 8.86-1.14 2.48-2.51 6.98-3.05 10-0.66 3.75-0.62 7.41 0.13 11.5 0.61 3.3 2.09 8.03 3.3 10.5 1.2 2.48 4.12 6.41 6.48 8.75 2.35 2.34 6.87 5.47 10.03 6.97 4.76 2.25 7.13 2.73 13.75 2.73 6.89 0.01 8.9-0.41 14.5-3.08 3.58-1.7 8.25-4.85 10.38-6.98 2.14-2.14 5.16-6.59 6.73-9.89 1.56-3.3 3.11-8.25 3.44-11 0.56-4.67 0.87-5.13 4.77-7 2.3-1.11 48.95-24.57 103.68-52.15 54.73-27.57 115.81-58.51 135.75-68.74 19.94-10.24 36.48-18.61 36.75-18.61 0.27 0 2.64 1.47 5.25 3.27 2.61 1.8 7.45 4.11 10.75 5.13 4.41 1.37 8.12 1.76 14 1.47 6.33-0.31 9.36-1.03 14.5-3.47 3.58-1.69 8.64-5.17 11.25-7.74 2.61-2.56 5.83-6.8 7.15-9.41 1.31-2.61 2.95-7.67 3.64-11.25 0.73-3.78 0.98-8.9 0.61-12.25-0.36-3.16-1.45-7.89-2.43-10.5-0.97-2.61-3.56-7.18-5.75-10.16-2.18-2.97-5.99-6.78-8.47-8.45-2.48-1.68-6.52-3.82-9-4.76-2.48-0.94-7.2-1.95-10.5-2.26-3.46-0.32-8.33-0.01-11.5 0.74zm-297.5 30.05c-0.55 0.22-4.38 1.17-8.5 2.12-4.9 1.12-45.91 18.15-118.5 49.2-61.05 26.12-125.4 53.69-143 61.26-17.6 7.58-48.88 20.98-69.5 29.78-20.63 8.79-46.72 19.92-58 24.71-11.28 4.79-42.1 17.94-68.5 29.21-26.4 11.28-50.66 21.92-53.9 23.66-3.25 1.73-7.2 4.73-8.79 6.65-1.58 1.93-3.59 5.98-4.46 9-1.1 3.8-1.37 7.05-0.88 10.5 0.39 2.75 1.41 6.8 2.28 9 0.87 2.2 3.53 7.04 5.92 10.75 2.38 3.71 7.82 10.24 12.08 14.51 4.26 4.27 12.03 11.08 17.25 15.12 5.22 4.05 17.75 13.04 27.83 19.99 13.86 9.54 18.46 13.24 18.86 15.13 0.29 1.38 1.35 5.88 2.37 10 1.01 4.13 3.26 11.55 5 16.5 1.75 4.95 4.88 12.38 6.96 16.5 2.08 4.13 6.19 11.17 9.13 15.66 2.94 4.49 8.5 11.86 12.35 16.38 3.85 4.51 11.72 11.99 17.5 16.62 5.78 4.62 13.87 10.15 18 12.29 4.12 2.14 10.65 5.06 14.5 6.5 3.85 1.44 10.82 3.33 15.5 4.2 6.12 1.14 12 1.44 21 1.09 9.95-0.4 14.24-1.06 21-3.24 4.68-1.51 19.75-8.48 33.5-15.5 13.75-7.02 52.79-26.76 86.75-43.88 33.96-17.12 62.09-31.11 62.5-31.09 0.41 0.01 2.32 2.33 4.25 5.15 1.93 2.83 6.02 7.43 9.11 10.23 3.09 2.8 8.26 6.53 11.5 8.29 3.24 1.76 8.59 4.18 11.89 5.39 4.7 1.72 8.6 2.26 18 2.46l12 0.26c7.9 6.74 23.4 20.17 39.54 34.19 16.14 14.02 32.99 28.65 37.44 32.5 4.46 3.85 18.16 15.77 30.46 26.5 12.3 10.73 25.01 21.75 28.24 24.5 3.23 2.75 5.75 5.06 5.6 5.12-0.16 0.07-7.26 4.31-15.78 9.42-8.52 5.1-15.95 9.28-16.5 9.27-0.55-0.01-12.92-4.39-27.5-9.75-14.58-5.35-26.61-9.92-26.75-10.15-0.14-0.22 3.72-6.82 8.58-14.66l8.83-14.25c-12.91-11.24-16.77-14.52-16.91-14.54-0.14-0.02-5.2 7.7-11.25 17.16-6.05 9.47-11.45 17.39-12 17.6-0.55 0.22-9.94-2.89-20.87-6.91-10.93-4.02-19.99-7.76-20.12-8.31-0.14-0.55-0.96-3.48-1.83-6.5-1.03-3.6-3.06-7.18-5.88-10.38-2.36-2.69-5.54-5.5-7.05-6.25l-2.75-1.37-0.02-50.5c-15.1-5.05-20.27-6.74-21.23-7.01-1.64-0.46-1.75 1.28-1.75 26.51 0 17.33-0.36 27-1 27-0.55 0-13.15-12.6-28-28l-27-28c-16.29 8.14-20.9 10.8-20.76 11.16 0.14 0.36 14 14.76 30.78 32l30.53 31.34-3.05 11.4c-17.05 6.39-41.35 15.42-65 24.19-23.65 8.76-43.11 15.82-43.26 15.67-0.14-0.14-3.23-18.71-6.87-41.26-3.63-22.55-6.8-41.23-7.03-41.5-0.23-0.27-4.9 1.75-10.39 4.5-5.49 2.75-9.97 5.56-9.96 6.25 0 0.69 1.13 8.79 2.51 18 1.37 9.21 3.59 23.5 4.94 31.75 1.34 8.25 2.25 15.11 2 15.25-0.24 0.14-17.65-10.07-38.69-22.68l-38.25-22.93c-13.95-1.71-20.7-2.88-24-3.7-3.3-0.82-6.79-1.71-7.75-1.97-1.38-0.37-2.62 1.39-5.83 8.28-2.25 4.81-3.71 9.05-3.25 9.41 0.45 0.37 10.28 6.4 21.83 13.42 11.55 7.01 42.6 25.79 69 41.74 26.4 15.94 67.57 40.78 91.5 55.2 23.93 14.42 55.76 33.7 70.75 42.85l27.25 16.63c105.79-63.79 162.6-98.06 194.5-117.31 31.9-19.26 78.7-47.49 104-62.75l46-27.75v-198.43l-30-17.58c-0.77 135.87-1.29 175.32-1.66 175.32-0.36 0-10.03-10.33-21.5-22.95-11.46-12.62-24.51-27.02-29-32-7.68-8.51-8.11-9.23-7.25-12.05 0.5-1.65 0.91-5.7 0.9-9-0.01-4.09-0.74-7.59-2.29-11l-2.28-5c10.27-17.83 21.88-37.96 32.42-56.25 16.56-28.74 18.96-33.42 17.65-34.5-0.83-0.69-5.11-3.5-9.52-6.25-4.4-2.75-8.15-4.77-8.32-4.5-0.17 0.28-6.12 10.63-13.22 23-7.09 12.38-18.57 32.4-25.5 44.5-12.22 21.32-12.7 21.99-15.52 21.68-1.6-0.18-4.71 0.15-6.91 0.72l-4 1.05c-6.98-8.05-13.48-15.35-18.95-21.42-5.48-6.07-10.32-11.14-10.75-11.28-0.44-0.14-5.41 2.03-11.05 4.82l-10.25 5.06c5.56 5.71 13.33 14.23 20.84 22.62 11.81 13.19 13.52 15.52 12.66 17.25-0.55 1.1-1.28 4.59-1.62 7.75-0.34 3.22-0.13 7.51 0.49 9.75l1.11 4-51.13 51 16.65 15.5 49.5-50c5.93 1.77 10.85 2.03 15.5 1.72l8-0.52c17.68 19.61 30.84 34.19 40.65 45.05 9.82 10.86 17.74 19.99 17.6 20.28-0.14 0.29-24.55 0.99-54.25 1.54-29.7 0.56-54.11 1.22-54.25 1.47-0.14 0.25 5.04 5.22 11.5 11.03l11.75 10.57c52.46-0.53 63.5-0.29 63.49 0.36 0 0.55-1.24 1.72-2.75 2.6-1.51 0.88-13.99 8.47-27.74 16.86-13.75 8.39-25.34 15.43-25.75 15.65-0.41 0.21-11.89-9.63-25.5-21.87-13.61-12.25-37.13-33.28-52.25-46.75-15.12-13.47-35.38-31.43-45-39.92-9.62-8.48-17.61-15.57-17.75-15.75-0.14-0.18 1.19-2.46 2.94-5.07 1.75-2.61 4.28-7.22 5.6-10.25 1.33-3.02 3.03-8.42 3.79-12 0.76-3.58 1.39-10.66 1.4-15.75 0.01-5.09-0.68-12.51-1.54-16.5-0.86-3.99-1.42-7.29-1.25-7.35 0.17-0.05 22.08-11.08 48.69-24.5 26.61-13.42 50.01-25.79 52-27.48 1.99-1.7 5.06-5.3 6.82-8 1.76-2.71 4.6-8.29 6.31-12.42 1.72-4.12 4.33-11.69 5.81-16.82l2.68-9.31c36.04-18.5 46.95-23.87 47.5-23.87 0.55 0 13.26 7.26 28.25 16.14 14.99 8.88 33.1 19.61 40.25 23.85 7.15 4.23 17.5 10.37 23 13.64l10 5.94c0.4 12.36 1.28 17.52 2.46 20.68 1.09 2.89 3.45 7.46 5.25 10.15 1.81 2.7 4.87 6.15 6.79 7.67 1.92 1.52 6.2 4.04 9.5 5.6 5.34 2.52 7.1 2.83 16 2.83 9.23 0 10.52-0.26 16.75-3.25 3.71-1.79 8.77-5.27 11.25-7.75 2.48-2.47 5.96-7.54 7.75-11.25 3.03-6.3 3.25-7.45 3.25-17.3 0-10.11-0.15-10.87-3.64-18-2.41-4.94-5.28-8.93-8.5-11.84-2.67-2.41-7.11-5.44-9.86-6.72-2.75-1.29-7.7-2.84-11-3.45-3.3-0.61-8.02-0.8-10.5-0.43-2.48 0.38-6.52 1.38-9 2.22-2.48 0.85-6.18 2.72-8.24 4.16-2.86 2-4.03 2.34-5 1.46-0.69-0.64-26.35-16.05-57.01-34.25-30.66-18.21-55.98-33.1-56.25-33.1-0.27 0-10.51 4.89-22.75 10.88-12.24 5.98-85.48 42.24-162.75 80.56-77.27 38.33-142.75 70.41-145.5 71.28-3.55 1.13-7.31 1.44-13 1.1-6.91-0.42-9.16-1.07-16.5-4.77-4.68-2.36-10.52-5.44-13-6.85l-4.5-2.56c96.1-47.94 124.11-62.04 124.25-62.25 0.14-0.21-0.82-1.85-2.14-3.64-1.31-1.79-3.51-5.5-4.89-8.25-1.38-2.75-3.01-6.8-3.62-9l-1.11-4c-80.98 40.31-113.26 56.24-123.99 61.4l-19.5 9.38c-11.63-5.86-22.65-11.15-32-15.55-9.35-4.39-26.68-12.01-38.5-16.94-11.82-4.92-26.68-10.74-33-12.92-6.32-2.19-16.45-5.29-22.5-6.9-6.05-1.61-15.28-3.79-20.5-4.84-5.22-1.06-13.44-2.41-18.25-3.02-4.81-0.61-8.75-1.45-8.75-1.86 0-0.41 14.73-7.01 32.75-14.66 18.01-7.65 64.02-27.28 102.25-43.62 38.23-16.33 97.18-41.5 131-55.93 33.82-14.43 80.17-34.23 103-44.01 22.83-9.78 43.98-18.35 47-19.05 3.02-0.7 8.87-1.27 13-1.27 4.95 0 10.05 0.78 15 2.29l7.5 2.28c21.7-11.24 28.37-14.79 28.83-15.14 0.46-0.35-0.67-1.83-2.5-3.29-1.83-1.45-6.48-4.22-10.33-6.15-3.85-1.93-10.83-4.74-15.5-6.23-7.02-2.25-10.77-2.78-21.5-3.08-7.15-0.2-13.45-0.19-14 0.02zm232.55 88.88l-14.46 7.18 0.41 45.53c22.48 13.18 29.45 17 30 17 0.65 0 1-13.5 1-38.5 0-30.16-0.27-38.49-1.25-38.44-0.69 0.03-7.75 3.28-15.7 7.23z"/>
			<path id="Path 2" fill-rule="evenodd" class="s0" d="m487.79 133.39c-6.39 7.76-18.23 21.99-26.33 31.61-8.09 9.63-17.81 21.21-21.59 25.75l-6.87 8.25c2.32 5.43 2.99 8.01 2.97 9.25-0.02 2.03 2.52 3.21 25.75 11.99 14.18 5.36 26.68 9.74 27.78 9.73 1.1-0.02 4.02-1.06 6.5-2.33l4.5-2.3c0.37-81.25 0.12-105.11-0.31-105.45-0.43-0.33-6.01 5.74-12.4 13.5zm35.96 38.87l-0.25 52.75 9 5.61c38.75-18.24 50.11-24.01 50.25-24.58 0.14-0.57-12.65-19.83-28.41-42.79-15.77-22.96-29.05-42.2-29.51-42.75-0.46-0.55-0.95 22.74-1.08 51.76zm30.82-49.01c0.43 0.69 5.29 7.78 10.8 15.75 5.52 7.98 16.52 23.95 24.45 35.5 7.93 11.55 14.48 21.1 14.55 21.22 0.07 0.12 9.48-4.15 20.9-9.5 11.42-5.35 20.74-9.94 20.71-10.22-0.04-0.27-9.16-5.89-20.27-12.47-11.12-6.58-31.35-18.62-44.96-26.75-13.61-8.13-25.25-14.78-25.85-14.78-0.63 0-0.77 0.54-0.33 1.25zm-133.07 26.86c-22 13.23-43.29 26.15-47.32 28.72-4.03 2.57-6.95 4.97-6.5 5.34 0.45 0.37 4.98 2.17 10.06 4 8.18 2.95 9.4 3.16 10.65 1.83 0.78-0.82 3.59-2.7 6.26-4.16 2.67-1.47 6.87-2.97 9.35-3.35 2.53-0.38 6.14-0.2 8.25 0.41l3.75 1.1c33.62-40.69 44.48-53.74 45.84-55.25q2.46-2.75 1.06-2.72c-0.77 0.02-19.4 10.86-41.4 24.08zm375.96 0.83c-2.22 1.04-4.79 2.94-5.72 4.23-0.92 1.28-1.96 3.68-2.32 5.33-0.36 1.65-0.18 4.58 0.4 6.5 0.58 1.93 2.43 4.74 4.12 6.25 1.68 1.51 4.52 3.01 6.31 3.33 2.06 0.36 4.85-0.09 7.62-1.25 2.86-1.2 5.07-3.03 6.41-5.33 1.5-2.58 1.93-4.73 1.63-8.17-0.31-3.48-1.17-5.45-3.41-7.78-1.65-1.72-4.58-3.55-6.5-4.08-1.92-0.53-3.73-0.95-4-0.94-0.27 0.01-2.32 0.87-4.54 1.91zm-497.18 72.29c-21.88 13.25-49.91 30.14-62.28 37.54-12.38 7.39-22.05 13.77-21.5 14.16 0.55 0.4 5.72 2.43 11.5 4.52 5.78 2.08 22.2 8.28 36.5 13.77l26 9.98c7.34-5.59 11.21-7.34 15-8.19 4.56-1.02 7.08-1.08 10.5-0.26 2.48 0.6 4.53 1.01 4.57 0.92 0.04-0.09 8.36-9.82 18.5-21.61 10.14-11.79 23.34-27.09 29.33-34 6-6.91 11.48-13.23 12.17-14.06 1-1.18 1.02-2.63 0.1-6.89l-1.17-5.39c-16.27-6.13-25.15-9.41-30.22-11.24l-9.22-3.33zm607.07 35.48c-1.74 0.91-4.1 3.04-5.25 4.72-1.38 2.02-2.08 4.61-2.06 7.57 0.01 2.59 0.81 5.77 1.87 7.5 1.07 1.72 3.71 3.77 6.22 4.82 2.77 1.16 5.56 1.62 7.62 1.25 1.79-0.31 4.63-1.81 6.31-3.32 1.69-1.52 3.54-4.33 4.11-6.25 0.58-1.93 0.79-4.85 0.48-6.5-0.32-1.65-1.49-4.24-2.61-5.75-1.12-1.52-3.39-3.43-5.04-4.25-1.65-0.83-4.24-1.49-5.75-1.48-1.51 0.01-4.17 0.77-5.9 1.69zm-311.93 86.54c-2.6 2.38-3.67 4.31-4.04 7.25-0.34 2.78 0.08 5.06 1.39 7.5 1.04 1.92 3.43 4.3 5.31 5.28 2.57 1.34 4.41 1.6 7.42 1.03 2.31-0.43 5.16-1.92 6.75-3.53 1.51-1.53 3.01-4.25 3.33-6.03 0.36-2.06-0.09-4.86-1.25-7.64-1.13-2.71-2.89-4.92-4.58-5.75-1.51-0.75-4.56-1.36-6.76-1.36-3.14 0-4.8 0.71-7.57 3.25zm-32.49 88.03c-1.98 1.33-3.93 3.75-4.62 5.75-0.8 2.33-0.89 4.62-0.29 6.97 0.5 1.92 2.16 4.69 3.69 6.14 1.54 1.46 4.14 2.95 5.79 3.32 1.82 0.41 4.38 0.11 6.5-0.76 1.93-0.78 4.4-2.44 5.5-3.67 1.48-1.66 2-3.66 2-7.71 0-5.05-0.29-5.74-3.75-8.9-2.9-2.64-4.62-3.42-7.57-3.42-2.31 0-5.17 0.9-7.25 2.28zm343.54 52.64c-1.67 1.05-3.81 2.96-4.76 4.24-1.07 1.45-1.72 4.15-1.72 7.09 0.01 2.71 0.76 6.02 1.76 7.71 0.96 1.63 3.1 3.74 4.75 4.68 1.65 0.95 4.8 1.74 7 1.75 2.2 0.02 5.24-0.74 6.75-1.68 1.51-0.94 3.43-2.73 4.27-3.96 0.83-1.24 1.8-4.05 2.14-6.25 0.5-3.15 0.12-4.91-1.76-8.28-1.45-2.58-3.69-4.87-5.65-5.75-1.79-0.81-4.71-1.47-6.5-1.47-1.79 0-4.61 0.86-6.28 1.92zm-704.4 21.76c-2.33 2.65-6.23 8.87-8.67 13.82-2.43 4.95-5.39 12.6-6.58 17-1.78 6.59-2.16 10.81-2.19 24-0.02 13.73 0.33 17.55 2.54 27 1.41 6.05 4.26 15.27 6.31 20.5 2.06 5.22 5.13 11.97 6.81 15 1.69 3.02 5.31 8.87 8.06 13 2.74 4.12 8.4 10.91 12.57 15.07 4.17 4.17 10.51 9.54 14.08 11.94 3.58 2.4 8.75 5.39 11.5 6.64 2.75 1.26 8.6 3.2 13 4.33 4.8 1.22 11.2 2.04 16 2.03 4.4 0 10.7-0.69 14-1.54 3.3-0.84 8.46-2.76 11.46-4.25 3.01-1.5 8.34-5.42 11.86-8.72 3.52-3.3 8.35-9.15 10.73-13 2.38-3.85 5.7-11.05 7.36-16 1.67-4.95 3.72-13.5 4.55-19 0.84-5.5 1.53-12.48 1.54-15.5 0-3.03-0.46-9.33-1.04-14-0.57-4.68-1.75-11.43-2.61-15-0.86-3.58-3.29-11-5.4-16.5l-3.84-10c-16.75-7.97-29.03-13.43-38.11-17.27-9.07-3.85-23.7-9.47-32.5-12.5-8.8-3.03-21.17-6.65-27.5-8.04-6.32-1.39-13.34-2.82-15.59-3.18-3.94-0.62-4.26-0.46-8.34 4.17zm160.54 56.09c-0.24 0.4 0.22 3.43 1.03 6.73 0.81 3.3 1.73 12.97 2.04 21.5 0.44 11.88 0.17 18.18-1.14 27-0.95 6.32-2.6 14.42-3.68 18-1.07 3.57-1.72 6.72-1.44 7 0.29 0.27 2.85-1.08 5.7-3 2.86-1.93 6.55-5.08 8.21-7 1.66-1.93 4.73-7.1 6.83-11.5 2.09-4.4 4.47-10.7 5.3-14 0.83-3.3 1.95-9.15 2.5-13 0.55-3.85 1.01-9.59 1.02-12.75 0.02-4.91-0.31-5.95-2.23-7.12-1.24-0.75-7.07-3.89-12.97-6.98-5.9-3.09-10.92-5.29-11.17-4.88zm79.39 220.29c-26.12 9.85-48.33 18.25-49.36 18.67-1.49 0.62-0.05 1.84 7.5 6.34 5.15 3.07 29.39 17.65 53.86 32.4 24.48 14.75 45.06 26.98 45.75 27.17 0.99 0.28 1.25-9.72 1.25-47.64v-48c-4.26-2.17-6.4-3.76-7.5-4.93-1.1-1.18-2.45-2.09-3-2.02-0.55 0.06-22.37 8.17-48.5 18.01zm87-14.37c-2.47 1.95-4.78 4.28-5.11 5.18-0.34 0.89-0.42 18.28-0.17 38.63 0.37 30.37 0.68 36.73 1.74 35.5 0.71-0.83 11.04-16.8 22.95-35.5 11.92-18.7 21.54-34.11 21.38-34.24-0.16-0.13-8.05-3.16-17.54-6.75-9.49-3.58-17.59-6.48-18-6.44-0.41 0.05-2.77 1.68-5.25 3.62zm60.63 21.08c-1.29 2.05-10.34 16.33-20.12 31.73-9.77 15.4-17.94 28.56-18.14 29.25-0.2 0.68-0.14 1.25 0.13 1.25 0.28 0 17.94-10.52 39.25-23.37 21.31-12.84 39.76-23.87 41-24.5 1.24-0.62 2.32-1.48 2.41-1.9 0.09-0.42-4.97-2.65-11.25-4.96-6.27-2.31-15.8-5.78-21.17-7.72l-9.77-3.52z"/>
			<path id="Path 3" fill-rule="evenodd" class="s1" d="m238 524.33c-3.03 0.68-7.91 2.57-10.86 4.2-2.95 1.64-7.5 5.22-10.1 7.97-2.6 2.75-5.98 7.47-7.5 10.5-1.53 3.02-3.64 8.87-4.67 13-1.15 4.54-1.89 10.95-1.88 16.25 0 4.81 0.73 12.24 1.6 16.5 0.88 4.26 3.04 11.35 4.81 15.75 1.76 4.4 4.98 10.69 7.15 13.97 2.17 3.28 6.91 8.91 10.54 12.5 3.85 3.82 9.25 7.89 13 9.8 3.52 1.8 8.88 3.94 11.91 4.74 3.02 0.81 7.75 1.47 10.5 1.47 2.75 0 7.25-0.6 10-1.34 2.75-0.73 6.91-2.3 9.25-3.49 2.34-1.18 6.33-4.29 8.87-6.9 2.55-2.61 5.79-6.78 7.21-9.25 1.43-2.48 3.69-7.65 5.03-11.5 2.08-5.96 2.46-8.94 2.54-20 0.06-9.64-0.38-14.68-1.71-19.5-0.99-3.58-2.9-9.2-4.25-12.5-1.35-3.3-3.91-8.43-5.7-11.4-1.78-2.97-5.26-7.57-7.74-10.22l-4.5-4.82-15.31 10.44c3.44 5.77 4.2 8.76 4.22 12 0.03 3.23-0.66 6.2-1.94 8.39-1.08 1.86-3.54 4.22-5.47 5.25-1.93 1.03-5.07 1.87-7 1.87-1.93 0-5.07-0.83-7-1.83-2.17-1.13-4.38-3.52-5.82-6.25-1.69-3.24-2.21-5.64-1.95-8.93 0.2-2.48 1.36-5.96 2.57-7.75 1.21-1.79 3.55-3.92 5.2-4.75 1.65-0.83 4.8-1.61 6.99-1.75 3.51-0.22 3.91-0.49 3.32-2.25-0.37-1.1-0.48-5.9-0.25-10.66l0.43-8.66c-5.42-0.84-9.02-1.31-11.49-1.58-2.47-0.28-6.97 0.05-10 0.73z"/>
		</g>
	</g>
</svg>