<svg version="1.2" xmlns="http://www.w3.org/2000/svg" viewBox="0 0 1024 1024" width="1024" height="1024">
	<style>
		.s0 { fill: #010101 } 
	</style>
	<g id="Layer 1">
		<path id="Path 0" fill-rule="evenodd" class="s0" d="m504.46 63.92c-4.38 2.64-43.28 25.94-86.46 51.78-43.17 25.84-96.95 58.14-119.5 71.78-22.55 13.64-52.47 31.78-66.5 40.31-14.02 8.54-33.6 20.44-43.5 26.45-9.9 6.02-18.81 11.91-19.79 13.1-1.69 2.04-1.79 6.52-1.75 77.91 0.02 41.66 0.38 75.92 0.79 76.13 0.41 0.21 7.61-2.6 16-6.25l15.26-6.63c-0.01-88.74 0.22-114.5 0.49-114.5 0.28 0 17.49 6.35 38.25 14.11 20.76 7.76 39.44 14.73 41.5 15.5 2.81 1.04 3.75 1.95 3.75 3.64-0.01 1.24 0.74 4.27 1.65 6.75l1.65 4.5c-22.06 33.32-28.09 43.3-27.64 43.66 0.46 0.36 8.94-2.82 18.84-7.08l18-7.73 10-14.4c9.3-0.03 13.58-0.59 15.5-1.27 1.93-0.68 5.19-2.46 7.25-3.96 3.66-2.65 3.84-2.68 7.5-1.14l3.75 1.57c22.01-9.27 28-12.37 28-13.13 0-0.76-5.76-3.72-13.5-6.94-11.79-4.91-13.54-5.94-13.81-8.1-0.16-1.36-0.73-3.94-1.25-5.73-0.93-3.21-0.62-3.63 28.71-38 16.31-19.11 29.92-35.1 30.25-35.53 0.33-0.43 2.85-0.26 5.6 0.39 3.95 0.93 6.16 0.9 10.5-0.14 3.02-0.72 7.75-2.85 10.5-4.73l5-3.42c34.1 12.74 46.25 17.26 49 18.27 4.61 1.68 5.06 2.14 5.75 5.87 0.41 2.22 1.83 6.18 3.16 8.79 1.32 2.61 3.68 5.92 5.25 7.36 1.56 1.43 4.19 3.4 5.84 4.36l3 1.75c27.9-12.06 36.36-15.82 36.79-16.14 0.43-0.32 1.37-3.06 2.09-6.08l1.29-5.5 54.83-25.48c3.88 4.84 6.13 7.5 7.5 9.04 2.46 2.74 2.7 2.79 15.75 3.11 7.28 0.18 13.25-0.01 13.25-0.42 0-0.41-3.35-5.59-7.45-11.5l-7.44-10.75 51.89-24.5c48.05 28.68 62.15 36.89 62.34 36.75 0.19-0.14 3.22-6.46 6.75-14.04 5.61-12.08 6.22-13.96 4.91-15.12-0.83-0.73-17.48-10.99-37-22.8-19.52-11.81-59.58-35.88-89-53.49-29.42-17.61-64.3-38.45-77.5-46.31-13.2-7.85-24.92-14.86-26.04-15.57-1.81-1.15-2.96-0.74-10 3.5zm-36.95 94.34c18.15-21.58 33.1-39.24 33.24-39.25 0.14 0 0.25 23.84 0.25 105.99l-5.75 2.67c-5.66 2.62-5.82 2.64-10.25 1-2.48-0.91-14.4-5.4-48.5-18.26l-0.87-4.46c-0.48-2.45-0.93-5.35-0.99-6.45-0.07-1.26 12.02-16.43 32.87-41.24zm56.43-38.76l15.34 22.5c8.44 12.38 19.99 29.25 25.68 37.5 5.69 8.25 12.19 17.58 14.44 20.73 2.26 3.15 3.87 5.91 3.6 6.13-0.27 0.23-11.75 5.65-25.5 12.06-13.75 6.4-25.23 11.51-25.5 11.34-0.27-0.16-2.19-1.3-8-4.76l-0.03-52.75zm35.55 10.07c-2.89-4.37-4.52-7.59-3.62-7.17 0.89 0.42 21.65 12.71 90.63 53.85l-14 6.43c-7.7 3.54-16.81 7.75-20.25 9.37-3.44 1.62-6.67 2.84-7.19 2.7-0.52-0.14-9.8-13.07-20.62-28.75-10.83-15.67-22.06-32.07-24.95-36.43zm-144.28 24.76c26.56-16.04 48.4-29.2 48.55-29.25 0.14-0.04-0.54 1.03-1.5 2.38-0.97 1.35-11.66 14.36-45.76 55.34l-6-0.51c-3.3-0.29-7.91-0.02-10.25 0.6-2.34 0.61-6.28 2.69-13.25 8.11l-8.75-3.08c-4.81-1.69-9.33-3.38-10.04-3.75-0.78-0.4 17.95-12.29 47-29.84zm-122.24 73.78c25.56-15.46 47.16-28.08 48-28.04 0.84 0.05 9.63 3.1 37.53 13.49l2.87 10.94-10.43 12.06c-5.74 6.63-19.44 22.48-50.44 58.38l-6-0.63c-3.6-0.38-7.8-0.15-10.5 0.58-2.48 0.66-6.41 2.76-13 8.11l-5.25-2.09c-2.89-1.15-16.28-6.28-29.75-11.4-13.48-5.12-27.99-10.59-32.25-12.16-4.25-1.57-7.63-2.9-7.5-2.95 0.14-0.06 7-4.18 15.25-9.15 8.25-4.97 35.91-21.68 61.47-37.14zm500.03-104.51c-3.03 0.81-7.91 2.92-10.86 4.69-2.95 1.76-6.95 5.01-8.88 7.21-1.93 2.2-4.89 6.93-6.58 10.5-2.31 4.9-3.18 8.35-3.51 14-0.24 4.13 0.07 9.75 0.7 12.5 0.63 2.75 3 8.15 5.28 12 3.25 5.51 3.94 7.46 3.24 9.16-0.49 1.18-8.49 18.73-17.78 39-9.3 20.26-17.4 37.34-18 37.96-0.61 0.61-25.52 13.55-55.36 28.75l-54.25 27.63c-6.59-4.14-10.53-5.95-13-6.69-2.48-0.73-7.54-1.33-11.25-1.32-4.18 0-8.75 0.75-12 1.95-2.93 1.08-7.61 4.06-10.59 6.75-2.99 2.69-6.41 7.02-7.76 9.81-1.32 2.75-2.85 7.7-3.38 11-0.74 4.57-0.61 7.67 0.53 13 0.82 3.85 2.55 8.8 3.84 11 1.29 2.2 4.77 6.17 7.73 8.83 4.12 3.7 7.02 5.31 12.38 6.89 5.41 1.6 8.42 1.93 13.25 1.43 3.44-0.36 8.61-1.73 11.5-3.06 2.89-1.32 7.27-4.37 9.75-6.78 2.47-2.41 5.5-6.39 6.72-8.84 1.23-2.46 2.8-7.31 3.5-10.78l1.28-6.3 120-60.56c9.01-20.02 14.27-31.68 17.49-38.83 3.22-7.15 9.68-21.32 14.35-31.5l8.48-18.5c9.44-1.16 14.77-2.49 17.93-3.71 3.75-1.44 7.78-4.14 11.59-7.75 3.78-3.58 6.96-7.83 9-12.02 2.99-6.13 3.16-7.12 3.16-18 0-10.51-0.24-12.03-2.75-17.27-1.51-3.16-4.95-8.11-7.64-11-2.68-2.89-7.3-6.44-10.25-7.88-2.95-1.45-7.72-3.14-10.61-3.75-2.89-0.62-6.71-1.09-8.5-1.05-1.79 0.03-5.73 0.72-8.75 1.53zm4.27 27.37c1.22-0.46 3.8-0.88 5.73-0.93 2.09-0.06 4.89 0.82 6.95 2.18 1.9 1.25 4.09 3.86 4.86 5.78 0.92 2.31 1.15 4.86 0.68 7.5-0.46 2.56-1.9 5.17-4 7.25-2.75 2.72-4.04 3.25-7.89 3.25-2.53 0-5.84-0.69-7.35-1.54-1.51-0.84-3.54-2.86-4.5-4.5-0.97-1.64-1.75-4.97-1.75-7.46 0-3.32 0.66-5.31 2.52-7.59 1.38-1.71 3.52-3.48 4.75-3.94zm104.23 80.76c-2.75 0.99-7.03 2.96-9.5 4.39-2.48 1.43-6.24 4.58-8.38 6.99-2.13 2.41-5.17 7.09-6.77 10.39-2.05 4.26-3.07 8.18-3.49 13.5l-0.59 7.5c-62.21 31.39-112.22 56.74-151.27 76.58-39.05 19.84-83.94 42.57-99.75 50.5l-28.75 14.42c-6.2-3.87-10.36-5.74-13.25-6.65-3.75-1.18-7.4-1.52-12.75-1.17-5.16 0.34-8.91 1.22-12 2.82-2.48 1.28-6.53 4.22-9 6.53-2.64 2.46-5.74 6.84-7.5 10.59-2.64 5.61-3 7.47-3 15.38 0 7.91 0.36 9.77 3 15.38 1.85 3.95 4.82 8.06 7.75 10.75 2.61 2.41 6.89 5.38 9.5 6.61 3.81 1.79 6.54 2.23 13.76 2.25 8.1 0.01 9.68-0.31 15.5-3.15 3.72-1.81 8.17-5.01 10.43-7.5 2.17-2.39 5.05-6.82 6.41-9.84 1.36-3.02 2.74-7.66 3.06-10.3l0.59-4.8c138.72-69.8 201.84-101.73 229.75-115.98l50.75-25.92c5.81 4.62 9.97 6.83 13 7.91 3.02 1.07 7.75 2.25 10.5 2.63 2.88 0.39 7.54 0.16 11-0.53 3.3-0.67 8.64-2.63 11.88-4.36 3.23-1.73 7.84-5.29 10.25-7.9 2.4-2.61 5.61-7.34 7.12-10.5 2.49-5.21 2.75-6.78 2.72-16.75-0.02-9.19-0.42-11.98-2.41-17-1.74-4.39-4.15-7.77-8.97-12.59-4.92-4.92-8.11-7.18-12.59-8.89-3.85-1.47-8.87-2.44-14-2.69-5.94-0.28-9.29 0.08-13 1.4zm-290 28.89c-1.65 0.24-6.38 1.13-10.5 2-4.51 0.94-17.87 5.97-33.5 12.6-14.3 6.07-96.2 41.08-182 77.8-85.8 36.72-186.83 79.92-224.5 95.99-37.68 16.07-70.19 30.07-72.25 31.1-2.06 1.04-5.44 3.4-7.5 5.24-2.06 1.84-4.82 5.78-6.13 8.75-1.98 4.51-2.29 6.55-1.9 12.4 0.33 4.97 1.27 8.59 3.24 12.5 1.53 3.02 4.69 8.2 7.02 11.5 2.34 3.3 8.04 9.6 12.68 14 4.64 4.4 12.69 11.19 17.89 15.1 5.2 3.9 14.19 10.43 19.98 14.5 5.79 4.07 13.21 9.14 16.5 11.27l5.97 3.86c4.83 19.58 8.31 30.22 10.85 36.27 2.54 6.05 7.1 15.05 10.14 20 3.03 4.95 8.32 12.56 11.76 16.9 3.44 4.35 9.85 11.25 14.25 15.35 4.4 4.09 11.82 9.97 16.5 13.08 4.67 3.1 12.55 7.38 17.5 9.5 4.95 2.11 12.6 4.68 17 5.69 4.4 1.02 11.37 2.14 15.5 2.49 4.12 0.36 11.32 0.16 16-0.44 4.67-0.59 11.65-2.07 15.5-3.27 3.85-1.21 16-6.77 27-12.35 11-5.59 50.49-25.52 87.75-44.3l67.75-34.15c2.59 4.26 4.96 7.45 6.92 9.83 1.97 2.38 6.28 6.39 9.58 8.9 3.3 2.51 8.7 5.85 12 7.42 3.3 1.57 8.47 3.52 11.5 4.34 3.15 0.85 9.97 1.5 16 1.53l10.5 0.04c17.19 15.07 26.38 23.04 31.51 27.44 5.14 4.4 11.87 10.25 14.96 13 3.1 2.75 25.55 22.33 49.89 43.5 24.34 21.17 43.9 38.75 43.45 39.05-0.45 0.3-7.56 4.55-15.81 9.43-14.23 8.43-15.15 8.82-18 7.69-1.65-0.66-13.8-5.1-27-9.88-13.2-4.78-24.11-8.83-24.25-8.99-0.14-0.17 0.59-1.54 1.62-3.05 1.04-1.51 5.13-7.92 9.1-14.25l7.22-11.5c-6.74-6-10.6-9.27-12.94-11.12-2.34-1.86-4.59-3.22-5-3.02-0.41 0.2-5.7 8.1-11.75 17.56-6.05 9.46-11.45 17.03-12 16.81-0.55-0.21-9.49-3.5-19.87-7.31-14.07-5.16-19.07-7.43-19.65-8.92-0.42-1.1-1.38-4.01-2.13-6.46-0.74-2.46-2.59-6.17-4.1-8.25-1.51-2.09-4.76-5.03-7.22-6.54l-4.47-2.75c-0.05-44.56-0.36-50.59-1.31-50.88-0.69-0.2-4.85-1.59-9.25-3.08-4.4-1.48-9.01-2.89-10.25-3.12l-2.25-0.42v55l-56.5-57.26c-15.89 7.95-20.49 10.6-20.47 11.01 0.01 0.41 2.81 3.67 6.22 7.25 3.41 3.58 17.12 17.64 30.47 31.25 13.35 13.61 24.26 25.09 24.23 25.5-0.02 0.41-0.63 3-1.35 5.75l-1.31 5c-13.79 5.23-38.04 14.3-62.79 23.52l-45 16.77c-1.84-10.3-4.72-28.14-7.58-46.29-2.87-18.15-5.59-34.01-6.07-35.25-0.84-2.23-0.95-2.2-11.1 3.12-9.67 5.08-10.23 5.54-9.95 8.25 0.17 1.59 1.89 13.23 3.83 25.88 1.93 12.65 4.04 26.21 4.69 30.14 0.65 3.93 0.95 7.04 0.68 6.92-0.28-0.13-17.83-10.6-39-23.26l-38.5-23.03c-11.63-0.94-18.6-2.13-23-3.26-4.4-1.12-8.56-1.81-9.25-1.53-0.69 0.29-2.83 3.9-4.75 8.02-1.93 4.13-3.49 8.06-3.47 8.75 0.02 0.69 8.91 6.61 19.75 13.16 10.85 6.55 43.34 26.17 72.22 43.6 28.87 17.43 76.57 46.23 106 63.99 29.42 17.77 60.14 36.29 68.25 41.15 8.11 4.87 14.97 8.85 15.25 8.85 0.27 0 3.31-1.75 6.75-3.89 3.44-2.14 46.75-28.32 96.25-58.17 49.5-29.85 105.07-63.35 123.5-74.46 18.42-11.1 50.15-30.22 70.5-42.48 20.35-12.26 39.36-23.8 42.25-25.64l5.25-3.36-0.02-198.5c-22.69-13.17-29.89-17.11-30.63-17.25-1.12-0.21-1.39 14.44-1.6 87.37l-0.25 87.61c-52.12-57.19-56.96-62.99-56.74-65.14 0.14-1.42 0.35-5.74 0.47-9.59 0.16-5.42-0.3-8.13-2.04-12l-2.24-5c39.57-68.98 51.05-89.34 51.05-89.75 0-0.41-4.05-3.23-9-6.25-4.95-3.02-9.44-5.39-9.99-5.25-0.54 0.14-7.33 11.27-15.08 24.75-7.76 13.48-19.1 33.27-25.2 44-6.09 10.73-11.12 19.55-11.16 19.61-0.04 0.06-3.22 0.38-7.07 0.71l-7 0.6-29.5-32.92c-16.29 8.14-21.02 10.73-21.02 11-0.01 0.27 6.18 7.43 13.75 15.91 7.57 8.47 15.01 16.91 16.52 18.75 2.62 3.18 2.69 3.57 1.6 8.09-0.67 2.75-0.91 7.7-0.57 11.75l0.6 7c-38.69 38.75-49.8 50.56-49.65 51.25 0.15 0.69 3.87 4.4 8.27 8.25l8 7.01 49-49.14c10.55 2.06 13.33 2.07 17.5 1.2l5.5-1.15c12.53 13.62 25.91 28.38 37.83 41.58l21.65 24c-36.02 0.96-59.76 1.34-75.98 1.47-16.23 0.12-30.55 0.52-31.83 0.88-2.09 0.59-1.04 1.77 10.5 11.91l12.83 11.27 64-1.25c-11.63 7.31-24.56 15.24-36.25 22.33-11.69 7.09-21.81 12.7-22.5 12.48-0.69-0.23-10.93-9.13-22.75-19.79-11.83-10.65-42.43-37.95-68-60.65-25.58-22.71-46.89-41.82-47.36-42.47-0.54-0.74 0.26-2.84 2.16-5.68 1.67-2.48 3.99-6.75 5.17-9.5 1.17-2.75 2.77-7.48 3.55-10.5 0.78-3.02 1.69-9.33 2.03-14 0.42-5.81 0.14-10.87-0.89-16-0.82-4.12-1.76-8.29-2.08-9.25-0.49-1.46 7.4-5.77 47.67-26.05 26.54-13.36 49.73-25.4 51.55-26.75 1.81-1.35 5.04-4.93 7.16-7.95 2.13-3.02 5.22-8.65 6.87-12.5 1.65-3.85 4.24-11.27 5.76-16.5 1.52-5.23 3.24-10.03 3.84-10.68 0.59-0.65 11.31-6.39 23.82-12.75l22.75-11.57c20.54 11.94 36.62 21.42 49 28.77 12.37 7.35 29.25 17.42 37.5 22.37l15 9c-0.56 7.25-0.18 11.84 0.49 14.86 0.67 3.02 2.63 8.15 4.36 11.38 1.73 3.23 5.29 7.85 7.9 10.25 2.61 2.4 7.11 5.49 10 6.86 2.89 1.37 7.72 2.92 10.75 3.44 3.53 0.62 7.83 0.61 12-0.01 3.57-0.54 9.2-2.28 12.5-3.86 3.53-1.71 7.95-4.98 10.75-7.98 2.61-2.79 5.99-7.67 7.5-10.83 2.51-5.24 2.75-6.77 2.75-17.25 0-10.48-0.24-12.01-2.75-17.25-1.51-3.16-5.11-8.26-8-11.33-3.38-3.6-7.57-6.71-11.75-8.73-5.95-2.88-7.35-3.15-16.5-3.17-9.05-0.02-10.61 0.26-16.37 2.98-3.51 1.65-6.88 3.57-7.5 4.28-0.91 1.02-1.62 0.94-3.63-0.44-1.38-0.94-20.28-12.27-42-25.17-21.73-12.91-46.25-27.44-54.5-32.29-8.25-4.85-15.56-8.84-16.25-8.85-0.69-0.02-24.99 11.72-54 26.09-29.01 14.36-64 31.63-77.75 38.38-13.75 6.74-58.53 28.99-99.5 49.43-40.98 20.45-80.24 39.85-87.25 43.12-8.87 4.14-14.5 6.14-18.5 6.58-3.19 0.34-8.2 0.11-11.25-0.53-3.03-0.64-10.56-3.73-16.75-6.88-6.18-3.15-11.24-5.95-11.24-6.22 0-0.27 27.79-14.43 61.75-31.45 33.95-17.02 61.96-31.09 62.24-31.26 0.27-0.17-0.66-1.54-2.07-3.05-1.41-1.51-3.41-4.09-4.44-5.74-1.02-1.65-2.85-5.92-4.05-9.5-1.21-3.57-2.59-6.49-3.07-6.49-0.48 0.01-23.37 11.3-50.87 25.1-27.5 13.79-59.45 29.62-71 35.18l-21 10.1c-23.25-11.52-38.55-18.66-49-23.28-10.45-4.63-25.75-11.11-34-14.4-8.25-3.28-19.95-7.56-26-9.5-6.05-1.95-15.28-4.67-20.5-6.06-5.23-1.39-13.33-3.27-18-4.19-4.68-0.92-12.73-2.19-17.9-2.82l-9.41-1.14c52.55-22.34 111.23-47.38 164.31-70.06 53.07-22.68 126.2-53.95 162.5-69.5 36.3-15.54 70.5-30.16 76-32.48 5.5-2.32 12.92-4.79 16.5-5.49 3.86-0.76 9.75-1.05 14.5-0.73 4.4 0.3 10.47 1.47 13.5 2.61l5.5 2.07c22.83-11.95 29.47-15.98 29.48-16.67 0.01-0.69-2.12-2.58-4.73-4.2-2.61-1.62-8.13-4.51-12.25-6.41-4.13-1.91-10.88-4.37-15-5.45-4.13-1.09-11.55-2.21-16.5-2.49-4.95-0.28-10.35-0.32-12-0.08zm297.57-2.53c1.88-0.47 4.55-0.62 5.93-0.33 1.37 0.28 3.74 1.13 5.25 1.88 1.51 0.75 3.42 2.71 4.25 4.36 0.82 1.65 1.5 4.8 1.5 7 0 2.2-0.69 5.24-1.54 6.75-0.84 1.51-2.87 3.54-4.5 4.5-1.63 0.96-4.65 1.75-6.71 1.75-2.06-0.01-5.21-0.91-7-2-1.79-1.1-3.98-3.46-4.88-5.25-1.13-2.26-1.45-4.62-1.04-7.75 0.34-2.6 1.58-5.67 2.94-7.28 1.3-1.52 3.91-3.16 5.8-3.63zm-343.8 173.88c1.22-0.46 3.02-0.87 3.98-0.91 0.96-0.03 3.32 0.62 5.25 1.44 1.92 0.83 4.26 2.74 5.19 4.25 0.93 1.51 1.72 4.37 1.75 6.35 0.03 1.98-0.62 4.85-1.44 6.37-0.83 1.51-2.74 3.38-4.25 4.14-1.51 0.77-4.44 1.39-6.5 1.4-2.06 0-4.76-0.67-6-1.5-1.24-0.83-2.93-2.86-3.75-4.51-0.83-1.65-1.5-4.57-1.5-6.5 0-2.25 0.9-4.6 2.52-6.59 1.38-1.71 3.52-3.48 4.75-3.94zm31.98-88.02c2.46-1.56 4.35-1.94 7.75-1.59 3.42 0.36 5.16 1.21 7.25 3.56 2.22 2.49 2.75 4.04 2.75 8.08 0 4.33-0.45 5.47-3.4 8.5-2.92 3-4.06 3.5-8 3.5-3.92 0-5.12-0.51-8.1-3.5-2.96-2.96-3.5-4.19-3.5-8 0-2.48 0.45-5.4 1-6.5 0.55-1.1 2.46-2.92 4.25-4.05zm309.89 141.8c1.85-0.97 4.37-1.76 5.61-1.75 1.24 0 3.71 0.59 5.5 1.32 1.79 0.72 4.26 2.75 5.5 4.5 1.66 2.35 2.24 4.55 2.2 8.43-0.04 4.74-0.41 5.61-3.88 9-3.18 3.1-4.54 3.75-7.95 3.75-2.27 0-5.47-0.68-7.12-1.5-1.65-0.82-3.9-2.96-5-4.75-1.1-1.79-2-4.82-2-6.75-0.01-1.93 0.84-5.07 1.89-7 1.04-1.93 3.4-4.29 5.25-5.25zm-705.87 23.5c3.17-4.21 4.52-5.25 6.84-5.25 1.59 0 7.73 0.93 13.64 2.07 5.91 1.14 18.62 4.69 28.25 7.9 9.62 3.21 26.5 9.66 37.5 14.35 11 4.68 23.55 10.24 27.89 12.35 5.05 2.45 8.34 4.73 9.15 6.33 0.69 1.38 2.9 7.23 4.9 13 2.01 5.77 4.31 14.33 5.11 19 0.81 4.67 1.47 13.67 1.47 20 0 6.33-0.68 15.44-1.51 20.25-0.83 4.81-2.88 12.46-4.56 17-1.68 4.54-4.68 10.95-6.69 14.25-2 3.3-6.37 8.72-9.7 12.04-3.61 3.6-8.69 7.34-12.56 9.26-3.58 1.77-9.88 3.93-14 4.8-5.14 1.09-10.02 1.42-15.5 1.03-4.4-0.32-11.15-1.54-15-2.72-3.85-1.18-9.48-3.39-12.5-4.92-3.03-1.52-8.2-4.77-11.5-7.2-3.3-2.44-8.84-7.33-12.32-10.86-3.47-3.54-9.03-10.48-12.35-15.43-3.33-4.95-7.77-12.6-9.88-17-2.11-4.4-4.96-11.37-6.33-15.5-1.37-4.12-3.47-12.23-4.66-18-1.58-7.66-2.16-14.01-2.15-23.5 0.01-7.79 0.62-15.81 1.53-20 0.83-3.85 2.69-10.15 4.14-14 1.45-3.85 3.58-8.58 4.74-10.5 1.15-1.92 3.87-5.86 6.05-8.75zm161.23 53.95l25.69 13.3-0.53 12.5c-0.35 8.37-1.23 14.98-2.66 20-1.18 4.13-3.54 10.42-5.26 14-1.71 3.58-4.94 8.47-7.18 10.88-2.23 2.41-5.97 5.67-8.31 7.25-2.34 1.58-4.45 2.76-4.7 2.62-0.25-0.14 0.16-2.05 0.91-4.25 0.74-2.2 2.07-7.49 2.95-11.75 0.87-4.26 2.03-12.81 2.57-19 0.63-7.32 0.63-15.27-0.01-22.75-0.53-6.33-1.53-14.04-2.22-17.15zm127.53 203.18l4.48 3.31c2.47 1.82 4.94 3.31 5.49 3.31 0.65 0 1 16.67 1 48 0 26.4-0.36 47.89-0.81 47.75-0.44-0.14-25.08-14.85-54.75-32.71-29.67-17.85-53.49-32.6-52.94-32.79 0.55-0.18 22.72-8.55 49.26-18.6zm44.45-0.08l6.51 2.41c3.58 1.32 11.56 4.29 28.93 10.79l-1.65 2.5c-0.91 1.38-8.46 13.08-16.76 26-8.31 12.93-17.78 27.69-21.06 32.8-3.27 5.11-6.06 9.27-6.2 9.25-0.13-0.03-0.23-17.26-0.17-76.55l5.2-3.6zm56.75 22.96c0.55-0.69 1.28-1.26 1.63-1.26 0.35-0.01 8.52 2.87 18.14 6.4 9.63 3.53 18.74 6.91 20.25 7.51 2.63 1.05 1.34 1.95-30.5 21.21-18.29 11.06-37.3 22.61-42.25 25.67-8.24 5.1-8.83 5.32-7.05 2.64 1.08-1.61 10.24-15.97 20.37-31.92 10.13-15.95 18.87-29.57 19.41-30.25zm249.17-439.41l-14.9 7.66-0.62 45c23.73 14.16 30.96 18.1 31.37 17.89 0.41-0.22 0.8-17.69 0.85-38.83 0.06-23.33-0.27-38.63-0.84-38.91-0.52-0.25-7.66 2.99-15.86 7.19zm-604.9 174.56c-2.2 0.7-6.02 2.31-8.5 3.59-2.47 1.28-6.78 4.62-9.56 7.42-2.79 2.8-6.49 8.01-8.24 11.59-1.74 3.57-3.92 9.42-4.83 13-1.06 4.12-1.66 10.33-1.63 17 0.02 6.19 0.72 13.37 1.7 17.5 0.92 3.85 2.85 9.92 4.29 13.5 1.44 3.57 4.21 9.2 6.17 12.5 1.95 3.3 6.26 8.85 9.58 12.35 3.31 3.49 8.5 7.97 11.52 9.95 3.03 1.98 8.65 4.69 12.5 6.01 5.88 2.03 8.44 2.36 16 2.04 7.57-0.32 10.03-0.88 15.5-3.52 4.41-2.13 8.22-5.02 11.85-8.98 2.95-3.22 6.63-8.55 8.2-11.85 1.56-3.3 3.53-8.93 4.38-12.5 0.85-3.58 1.54-11 1.55-16.5 0-6.61-0.68-12.89-2.02-18.5-1.12-4.68-4.01-12.55-6.44-17.5-2.42-4.95-6.79-11.84-9.71-15.3-2.92-3.46-5.53-6.29-5.81-6.28-0.27 0.01-3.99 2.28-8.25 5.05-4.26 2.76-7.75 5.25-7.75 5.53 0 0.27 0.9 1.96 2 3.75 1.27 2.08 2 5.05 2.02 8.25 0.03 3.57-0.62 6-2.26 8.5-1.27 1.92-3.87 4.31-5.78 5.3-2.38 1.23-4.75 1.64-7.48 1.29-2.2-0.28-5.12-1.36-6.5-2.41-1.37-1.04-3.38-3.42-4.46-5.29-1.16-2-1.98-5.31-2-8.07-0.03-3.22 0.61-5.55 2.05-7.5 1.15-1.55 3.63-3.85 5.5-5.1 1.97-1.31 4.89-2.27 6.91-2.25l3.5 0.03v-21.94c-7.36-1.6-11.86-2.03-14.75-2-2.89 0.04-7.05 0.64-9.25 1.34z"/>
	</g>
</svg>